# xmcd
#
# Track frame offsets: 
#        150
#        6396
#        27434
#        48247
#        69959
#        90025
#        111145
#        143010
#        173079
#        196211
#        226635
#        251692
#
# Disc length: 3690 seconds
#
# Revision: 0
# Processed by: cddbd v1.5.2PL0 Copyright (c) Steve Scherf et al.
# Submitted via: ExactAudioCopyFreeDBPlugin 1.0
#
DISCID=8a0e680c
DTITLE=陰陽座 - 鬼子母神
DYEAR=2011
DGENRE=Heavy Metal
TTITLE0=組曲「鬼子母神」～啾啾
TTITLE1=組曲「鬼子母神」～徨
TTITLE2=組曲「鬼子母神」～産衣
TTITLE3=組曲「鬼子母神」～膾
TTITLE4=組曲「鬼子母神」～鬼拵ノ唄
TTITLE5=組曲「鬼子母神」～月光
TTITLE6=組曲「鬼子母神」～柘榴と呪縛
TTITLE7=組曲「鬼子母神」～鬼子母人
TTITLE8=組曲「鬼子母神」～怨讐の果て
TTITLE9=組曲「鬼子母神」～径
TTITLE10=組曲「鬼子母神」～紅涙
TTITLE11=組曲「鬼子母神」～鬼哭
EXTD=
EXTT0=
EXTT1=
EXTT2=
EXTT3=
EXTT4=
EXTT5=
EXTT6=
EXTT7=
EXTT8=
EXTT9=
EXTT10=
EXTT11=
PLAYORDER=
